<svg width="23" height="24" viewBox="0 0 23 24" fill="none" xmlns="http://www.w3.org/2000/svg">
<path d="M10.8721 0C15.113 2.6027e-05 18.5516 3.43786 18.5518 7.67871L18.542 8.07422C18.4303 10.2791 17.3864 12.2366 15.7989 13.5664C16.2532 13.7543 16.7044 13.9746 17.1504 14.2295L17.1768 14.2441L17.2012 14.2598C19.1039 15.449 20.4204 16.5966 21.3145 17.9033C22.2196 19.2264 22.6101 20.594 22.8545 22.0605C22.9905 22.8775 22.439 23.6508 21.6221 23.7871C20.8051 23.9233 20.0319 23.3706 19.8956 22.5537C19.6883 21.3105 19.4014 20.4189 18.8389 19.5967C18.2675 18.7616 17.3301 17.8812 15.6338 16.8184C12.9879 15.3186 10.0891 15.3983 7.1397 16.873C4.14998 18.368 3.2401 21.2549 2.97075 22.6016C2.80806 23.4134 2.01809 23.9405 1.2061 23.7783C0.393885 23.6159 -0.132895 22.8249 0.0293471 22.0127C0.36238 20.3478 1.56065 16.3082 5.7979 14.1895C5.99272 14.092 6.18847 13.9993 6.38482 13.9111C4.45171 12.5164 3.19341 10.2444 3.19341 7.67871C3.1936 3.43796 6.63137 0.000194041 10.8721 0ZM10.8721 3C8.28823 3.00019 6.1936 5.09482 6.19341 7.67871C6.19341 10.2628 8.28811 12.3582 10.8721 12.3584C13.4563 12.3584 15.5518 10.2629 15.5518 7.67871C15.5516 5.09471 13.4562 3.00003 10.8721 3Z" fill="white" fill-opacity="0.9"/>
</svg>
