<svg width="35" height="22" viewBox="0 0 35 22" fill="none" xmlns="http://www.w3.org/2000/svg">
<path d="M0.355469 5.79757C0.348659 1.56393 4.92756 -1.08954 8.59766 1.0212L17.126 5.92648C20.796 8.03725 20.8053 13.3296 17.1426 15.4528L8.62988 20.3864C4.96686 22.5093 0.379313 19.8711 0.37207 15.6374L0.355469 5.79757ZM33.5 17.8601C34.3282 17.8603 35 18.5318 35 19.3601C34.9998 20.1881 34.3281 20.8598 33.5 20.8601H18.7227C17.8944 20.8601 17.2229 20.1883 17.2227 19.3601C17.2227 18.5316 17.8942 17.8601 18.7227 17.8601H33.5ZM7.10156 3.62179C5.43338 2.6624 3.35249 3.8684 3.35547 5.79269L3.37207 15.6325C3.37547 17.5569 5.461 18.7557 7.12598 17.7907L15.6377 12.8571C17.3026 11.8921 17.2989 9.4866 15.6309 8.52706L7.10156 3.62179ZM33.5 9.63351C34.3282 9.63377 35 10.3052 35 11.1335C35 11.9618 34.3282 12.6332 33.5 12.6335H25.7402C24.9118 12.6335 24.2402 11.9619 24.2402 11.1335C24.2402 10.3051 24.9118 9.63351 25.7402 9.63351H33.5ZM33.5 1.40694C34.3281 1.40714 34.9998 2.07884 35 2.90694C35 3.73525 34.3283 4.40675 33.5 4.40694H19.6582C18.8298 4.40694 18.1582 3.73537 18.1582 2.90694C18.1584 2.07872 18.8299 1.40694 19.6582 1.40694H33.5Z" fill="white"/>
</svg>
