<svg width="43" height="24" viewBox="0 0 43 24" fill="none" xmlns="http://www.w3.org/2000/svg">
<path d="M19.5049 5.63029C20.375 1.1921 25.3661 -1.40606 29.6045 0.800215L38.8086 5.59318C43.8216 8.20379 43.8336 15.3733 38.8291 18.0004L29.6416 22.8227C25.3919 25.0533 20.3669 22.4397 19.5147 17.9682C19.4953 17.9786 19.4766 17.9902 19.457 18.0004L10.2695 22.8237C5.61314 25.2676 0.0245031 21.8951 0.0156353 16.6362L1.0272e-05 7.02189C-0.00873461 1.76298 5.56783 -1.62731 10.2324 0.801191L19.4356 5.59318C19.4588 5.6053 19.4818 5.61799 19.5049 5.63029ZM8.38478 4.34904C6.38579 3.3086 3.99642 4.76148 4.00001 7.01506L4.01564 16.6293C4.01944 18.8831 6.41461 20.3288 8.41017 19.2817L17.5977 14.4584C19.7422 13.3323 19.7364 10.2597 17.5879 9.14104L8.38478 4.34904ZM27.7568 4.34904C25.7579 3.30873 23.3684 4.76148 23.3721 7.01506L23.3887 16.6293C23.3925 18.883 25.7867 20.3286 27.7822 19.2817L36.9697 14.4584C39.1144 13.3325 39.1093 10.2599 36.9609 9.14104L27.7568 4.34904Z" fill="white"/>
</svg>
