<svg width="36" height="36" viewBox="0 0 36 36" fill="none" xmlns="http://www.w3.org/2000/svg">
<path d="M17.5475 6.8623C17.6211 6.83942 17.8797 6.76086 18.2155 6.80957L18.3639 6.83887L18.5143 6.88477C18.6503 6.93428 18.7424 6.9895 18.7653 7.00293C18.823 7.03674 18.8685 7.06821 18.8932 7.08594C18.944 7.12238 18.9869 7.15755 19.0123 7.17871C19.0669 7.22404 19.1248 7.27643 19.1783 7.3252C19.2893 7.42626 19.4355 7.56367 19.6051 7.72656C19.9469 8.05487 20.4178 8.51668 20.9703 9.0625C22.0769 10.1557 23.5292 11.6051 24.9713 13.0508C26.4141 14.4972 27.8498 15.9418 28.9244 17.0244C29.4617 17.5657 29.9084 18.0173 30.2213 18.333C30.3777 18.4908 30.5008 18.6146 30.5846 18.6992C30.6264 18.7414 30.6586 18.774 30.6803 18.7959C30.6909 18.8066 30.6992 18.8148 30.7047 18.8203C30.7073 18.823 30.7092 18.8257 30.7106 18.8271L30.7125 18.8281C31.2953 19.4167 31.2912 20.3673 30.7028 20.9502C30.1141 21.5331 29.1645 21.5281 28.5817 20.9395H28.5807L28.5797 20.9375C28.5783 20.9361 28.5756 20.9343 28.5729 20.9316C28.5674 20.9261 28.5591 20.918 28.5485 20.9072C28.5269 20.8855 28.4954 20.8526 28.4537 20.8105C28.3701 20.7262 28.2466 20.6019 28.0905 20.4443C27.9764 20.3292 27.8446 20.1959 27.6969 20.0469V23.7061C27.6968 26.7433 25.2341 29.2057 22.1969 29.2061H13.8043C10.7668 29.2061 8.30441 26.7435 8.30432 23.7061V20.0391C8.15833 20.1877 8.02768 20.3205 7.91467 20.4355C7.75859 20.5945 7.6359 20.7196 7.55237 20.8047C7.51071 20.8471 7.47819 20.8794 7.45667 20.9014C7.44608 20.9122 7.4377 20.9202 7.43225 20.9258C7.42959 20.9285 7.42774 20.9312 7.42639 20.9326L7.42444 20.9336V20.9346C6.84445 21.5261 5.89487 21.5351 5.30334 20.9551C4.71191 20.3751 4.70191 19.4255 5.28186 18.834H5.28284L5.28381 18.832C5.28522 18.8306 5.28802 18.8288 5.29065 18.8262C5.29616 18.8205 5.30432 18.8117 5.31506 18.8008C5.33673 18.7787 5.36895 18.7457 5.41077 18.7031C5.4946 18.6177 5.61762 18.4923 5.77405 18.333C6.08709 18.0143 6.5344 17.5586 7.0719 17.0127C7.8239 16.2489 8.75436 15.3084 9.73889 14.3135V10.4531C9.73899 9.62488 10.4107 8.95329 11.2389 8.95312C12.0673 8.95312 12.7388 9.62478 12.7389 10.4531V11.292C13.5766 10.4534 14.3667 9.66657 15.0328 9.01172C15.5861 8.46784 16.0614 8.00728 16.4088 7.68164C16.5801 7.52113 16.7343 7.37936 16.8571 7.27441C16.9145 7.22532 16.9907 7.16256 17.0699 7.10547C17.105 7.08021 17.1803 7.02643 17.278 6.97461C17.325 6.94967 17.4208 6.90171 17.5475 6.8623ZM17.1364 11.1504C16.0406 12.2277 14.5965 13.6737 13.1559 15.125C12.5271 15.7584 11.9012 16.3941 11.3043 16.998V23.7061C11.3044 25.0867 12.4237 26.2061 13.8043 26.2061H22.1969C23.5773 26.2057 24.6968 25.0865 24.6969 23.7061V17.0283C24.1009 16.4293 23.4751 15.7993 22.8473 15.1699C21.4063 13.7254 19.9604 12.2815 18.8619 11.1963C18.532 10.8703 18.2325 10.5802 17.9772 10.3311C17.7328 10.5668 17.4498 10.8422 17.1364 11.1504Z" fill="white"/>
</svg>
