<svg width="36" height="36" viewBox="0 0 36 36" fill="none" xmlns="http://www.w3.org/2000/svg">
<path d="M17.5475 6.8623C17.6211 6.83942 17.8797 6.76086 18.2155 6.80957L18.364 6.83887L18.5143 6.88477C18.6503 6.93428 18.7424 6.9895 18.7653 7.00293C18.823 7.03674 18.8685 7.06821 18.8932 7.08594C18.9441 7.12238 18.9869 7.15755 19.0124 7.17871C19.0669 7.22404 19.1249 7.27643 19.1784 7.3252C19.2893 7.42626 19.4356 7.56367 19.6052 7.72656C19.947 8.05487 20.4179 8.51668 20.9704 9.0625C22.0769 10.1557 23.5293 11.6051 24.9714 13.0508C26.4142 14.4972 27.8499 15.9418 28.9245 17.0244C29.4618 17.5657 29.9085 18.0173 30.2214 18.333C30.3778 18.4908 30.5009 18.6146 30.5847 18.6992C30.6265 18.7414 30.6587 18.774 30.6804 18.7959C30.691 18.8066 30.6993 18.8148 30.7048 18.8203C30.7074 18.823 30.7093 18.8257 30.7106 18.8271L30.7126 18.8281C31.2954 19.4167 31.2913 20.3673 30.7028 20.9502C30.1141 21.5331 29.1646 21.5281 28.5817 20.9395H28.5807L28.5798 20.9375C28.5784 20.9361 28.5756 20.9343 28.5729 20.9316C28.5675 20.9261 28.5592 20.918 28.5485 20.9072C28.527 20.8855 28.4954 20.8526 28.4538 20.8105C28.3702 20.7262 28.2467 20.6019 28.0905 20.4443C27.9764 20.3292 27.8447 20.1959 27.697 20.0469V23.7061C27.6969 26.7433 25.2342 29.2057 22.197 29.2061H13.8044C10.7669 29.2061 8.30447 26.7435 8.30438 23.7061V20.0391C8.15839 20.1877 8.02774 20.3205 7.91473 20.4355C7.75865 20.5945 7.63596 20.7196 7.55243 20.8047C7.51077 20.8471 7.47825 20.8794 7.45673 20.9014C7.44614 20.9122 7.43776 20.9202 7.43231 20.9258C7.42966 20.9285 7.42781 20.9312 7.42645 20.9326L7.4245 20.9336V20.9346C6.84451 21.5261 5.89493 21.5351 5.30341 20.9551C4.71197 20.3751 4.70197 19.4255 5.28192 18.834H5.2829L5.28387 18.832C5.28528 18.8306 5.28808 18.8288 5.29071 18.8262C5.29622 18.8205 5.30439 18.8117 5.31512 18.8008C5.33679 18.7787 5.36901 18.7457 5.41083 18.7031C5.49466 18.6177 5.61768 18.4923 5.77411 18.333C6.08716 18.0143 6.53446 17.5586 7.07196 17.0127C7.82396 16.2489 8.75442 15.3084 9.73895 14.3135V10.4531C9.73905 9.62488 10.4107 8.95329 11.239 8.95312C12.0673 8.95312 12.7389 9.62478 12.739 10.4531V11.292C13.5766 10.4534 14.3668 9.66657 15.0329 9.01172C15.5861 8.46784 16.0614 8.00728 16.4089 7.68164C16.5801 7.52113 16.7344 7.37936 16.8571 7.27441C16.9145 7.22532 16.9908 7.16256 17.07 7.10547C17.1051 7.08021 17.1804 7.02643 17.278 6.97461C17.325 6.94967 17.4208 6.90171 17.5475 6.8623ZM17.1364 11.1504C16.0406 12.2277 14.5966 13.6737 13.1559 15.125C12.5272 15.7584 11.9013 16.3941 11.3044 16.998V23.7061C11.3045 25.0867 12.4237 26.2061 13.8044 26.2061H22.197C23.5773 26.2057 24.6969 25.0865 24.697 23.7061V17.0283C24.101 16.4293 23.4752 15.7993 22.8474 15.1699C21.4064 13.7254 19.9605 12.2815 18.862 11.1963C18.532 10.8703 18.2326 10.5802 17.9772 10.3311C17.7328 10.5668 17.4499 10.8422 17.1364 11.1504Z" fill="#FFE254"/>
</svg>
