<svg width="36" height="36" viewBox="0 0 36 36" fill="none" xmlns="http://www.w3.org/2000/svg">
<path d="M22.8326 6.7453L23.0992 6.77264L23.2798 6.79608L23.4507 6.86346C24.6252 7.32662 25.9003 7.98007 26.8277 8.41718C27.3206 8.64951 27.7112 8.82021 28.0064 8.92108C28.1167 8.95875 28.1928 8.97817 28.2388 8.98846C28.9735 8.90455 29.6756 9.37384 29.8619 10.1105C30.0644 10.9133 29.5777 11.7287 28.775 11.9318C28.3912 12.0288 28.0328 11.9972 27.7886 11.9572C27.5275 11.9143 27.269 11.8397 27.0357 11.7599C26.5715 11.6013 26.0527 11.3687 25.5484 11.131C24.9253 10.8374 24.2983 10.5263 23.6754 10.2346V24.0988L23.6685 24.3625C23.5324 27.075 21.31 29.2588 18.5562 29.259C15.7138 29.2587 13.4382 26.9321 13.438 24.0988C13.4382 21.2655 15.7138 18.9399 18.5562 18.9396C19.3138 18.9397 20.0306 19.1056 20.6754 19.4016V8.67694L20.692 8.56659C20.7339 8.28684 20.8554 7.56262 21.5093 7.09491C21.9814 6.75749 22.4977 6.72588 22.8326 6.7453ZM18.5562 21.9396C17.4022 21.9399 16.4382 22.8906 16.438 24.0988C16.4382 25.307 17.4022 26.2587 18.5562 26.259C19.7102 26.2588 20.6752 25.307 20.6754 24.0988C20.6752 22.8906 19.7102 21.9399 18.5562 21.9396Z" fill="white"/>
<rect x="6.49883" y="7.42821" width="9.64064" height="0.813206" rx="0.406603" fill="white" stroke="white" stroke-width="0.813206"/>
<rect x="6.49883" y="12.3075" width="9.64064" height="0.813206" rx="0.406603" fill="white" stroke="white" stroke-width="0.813206"/>
<rect x="6.49883" y="17.5932" width="6.022" height="0.813206" rx="0.406603" fill="white" stroke="white" stroke-width="0.813206"/>
</svg>
