<svg width="40" height="40" viewBox="0 0 40 40" fill="none" xmlns="http://www.w3.org/2000/svg">
<g filter="url(#filter0_d_2392_2577)">
<path d="M19.7341 10.2175C24.5957 10.4614 28.4617 14.4393 28.4617 19.3103L28.45 19.7791C28.3592 21.5488 27.7561 23.184 26.7869 24.5457L29.4958 27.2283C30.0846 27.811 30.0893 28.7606 29.5066 29.3494C28.9239 29.9377 27.9742 29.9435 27.3855 29.3611L24.6707 26.6736C23.152 27.7679 21.2829 28.4148 19.2605 28.4148L18.7869 28.4031C14.0823 28.1671 10.3097 24.4341 10.071 19.7791L10.0593 19.3103C10.0593 14.2821 14.1788 10.2058 19.2605 10.2058L19.7341 10.2175ZM19.2605 13.2058C15.8057 13.2058 13.0593 15.9688 13.0593 19.3103C13.0594 22.6517 15.8057 25.4148 19.2605 25.4148C22.7152 25.4148 25.4616 22.6517 25.4617 19.3103C25.4617 15.9688 22.7153 13.2058 19.2605 13.2058Z" fill="#FFE254"/>
</g>
<defs>
<filter id="filter0_d_2392_2577" x="-8" y="-8" width="56" height="56" filterUnits="userSpaceOnUse" color-interpolation-filters="sRGB">
<feFlood flood-opacity="0" result="BackgroundImageFix"/>
<feColorMatrix in="SourceAlpha" type="matrix" values="0 0 0 0 0 0 0 0 0 0 0 0 0 0 0 0 0 0 127 0" result="hardAlpha"/>
<feOffset/>
<feGaussianBlur stdDeviation="5"/>
<feComposite in2="hardAlpha" operator="out"/>
<feColorMatrix type="matrix" values="0 0 0 0 1 0 0 0 0 0.886275 0 0 0 0 0.329412 0 0 0 0.1 0"/>
<feBlend mode="normal" in2="BackgroundImageFix" result="effect1_dropShadow_2392_2577"/>
<feBlend mode="normal" in="SourceGraphic" in2="effect1_dropShadow_2392_2577" result="shape"/>
</filter>
</defs>
</svg>
