<svg width="36" height="36" viewBox="0 0 36 36" fill="none" xmlns="http://www.w3.org/2000/svg">
<path d="M17.7341 8.21753C22.5957 8.46144 26.4617 12.4393 26.4617 17.3103L26.45 17.7791C26.3592 19.5488 25.7561 21.184 24.7869 22.5457L27.4958 25.2283C28.0846 25.811 28.0893 26.7606 27.5066 27.3494C26.9239 27.9377 25.9742 27.9435 25.3855 27.3611L22.6707 24.6736C21.152 25.7679 19.2829 26.4148 17.2605 26.4148L16.7869 26.4031C12.0823 26.1671 8.30971 22.4341 8.07104 17.7791L8.05933 17.3103C8.05933 12.2821 12.1788 8.20581 17.2605 8.20581L17.7341 8.21753ZM17.2605 11.2058C13.8057 11.2058 11.0593 13.9688 11.0593 17.3103C11.0594 20.6517 13.8057 23.4148 17.2605 23.4148C20.7152 23.4148 23.4616 20.6517 23.4617 17.3103C23.4617 13.9688 20.7153 11.2058 17.2605 11.2058Z" fill="white"/>
</svg>
